<?xml version="1.0" encoding="UTF-8"?>
<!DOCTYPE svg PUBLIC "-//W3C//DTD SVG 1.1//EN" "http://www.w3.org/Graphics/SVG/1.1/DTD/svg11.dtd">
<svg xmlns="http://www.w3.org/2000/svg" version="1.1" width="639px" height="287px" style="shape-rendering:geometricPrecision; text-rendering:geometricPrecision; image-rendering:optimizeQuality; fill-rule:evenodd; clip-rule:evenodd" xmlns:xlink="http://www.w3.org/1999/xlink">
<g><path style="opacity:1" fill="#081011" d="M -0.5,-0.5 C 212.5,-0.5 425.5,-0.5 638.5,-0.5C 638.5,95.1667 638.5,190.833 638.5,286.5C 425.5,286.5 212.5,286.5 -0.5,286.5C -0.5,190.833 -0.5,95.1667 -0.5,-0.5 Z"/></g>
<g><path style="opacity:1" fill="#dbb866" d="M 117.5,86.5 C 117.703,88.0443 118.37,89.3777 119.5,90.5C 116.576,92.3701 113.576,93.0368 110.5,92.5C 102.225,86.7205 96.3913,79.0538 93,69.5C 91.3545,71.6093 90.1878,73.9427 89.5,76.5C 88.3121,75.3157 87.1455,75.3157 86,76.5C 86.5401,73.5748 85.3734,71.2415 82.5,69.5C 79.8333,70.5 79.8333,71.5 82.5,72.5C 81.675,73.3857 80.675,73.719 79.5,73.5C 79.5,72.1667 79.5,70.8333 79.5,69.5C 80.2892,56.4575 74.2892,50.2909 61.5,51C 59.4146,53.8365 59.0813,56.8365 60.5,60C 66.4165,58.2506 68.9165,60.4173 68,66.5C 59.6986,72.9235 53.3652,71.2568 49,61.5C 47.0643,51.8713 50.5643,45.0379 59.5,41C 74.9933,39.47 84.8266,46.3034 89,61.5C 89.6667,59.5 89.6667,57.5 89,55.5C 86.4359,48.4023 83.9359,41.4023 81.5,34.5C 82.3859,27.0678 86.0526,21.4011 92.5,17.5C 101.105,22.3773 104.605,29.7106 103,39.5C 98.7499,45.9103 96.7499,52.9103 97,60.5C 102.13,43.6478 112.964,37.8144 129.5,43C 136.077,47.559 138.243,53.7257 136,61.5C 132.044,70.1616 126.044,72.1616 118,67.5C 115.849,64.7838 116.016,62.2838 118.5,60C 120.751,60.2068 123.085,60.3735 125.5,60.5C 127.328,53.9693 124.995,50.6359 118.5,50.5C 112.459,51.3631 108.293,54.6964 106,60.5C 105.209,64.9255 105.543,69.2589 107,73.5C 109.955,78.2865 113.455,82.6199 117.5,86.5 Z"/></g>
<g><path style="opacity:1" fill="#cea856" d="M 110.5,92.5 C 113.576,93.0368 116.576,92.3701 119.5,90.5C 118.37,89.3777 117.703,88.0443 117.5,86.5C 122.89,89.526 128.556,92.026 134.5,94C 141.024,95.0114 147.357,94.3447 153.5,92C 157.007,90.1387 158.173,87.3054 157,83.5C 155.604,81.4732 153.938,81.1398 152,82.5C 152.203,86.6371 150.37,88.1371 146.5,87C 144.078,84.9973 143.245,82.4973 144,79.5C 151.502,69.2251 159.502,68.8918 168,78.5C 170,83.1667 170,87.8333 168,92.5C 163.385,98.7245 157.218,102.224 149.5,103C 135.009,104.739 122.009,101.239 110.5,92.5 Z"/></g>
<g><path style="opacity:1" fill="#d5b05e" d="M 79.5,69.5 C 79.5,70.8333 79.5,72.1667 79.5,73.5C 80.675,73.719 81.675,73.3857 82.5,72.5C 79.8333,71.5 79.8333,70.5 82.5,69.5C 85.3734,71.2415 86.5401,73.5748 86,76.5C 87.1455,75.3157 88.3121,75.3157 89.5,76.5C 81.5166,89.2979 70.1833,97.7979 55.5,102C 43.855,105.091 32.855,103.757 22.5,98C 12.8635,89.1991 13.1968,80.8658 23.5,73C 29.6115,70.423 34.9448,71.5897 39.5,76.5C 42.128,80.0349 42.128,83.5349 39.5,87C 38.1667,87.6667 36.8333,87.6667 35.5,87C 34.5709,84.6086 33.0709,82.7753 31,81.5C 28.7095,82.1241 27.5428,83.6241 27.5,86C 30.1719,92.2608 35.0053,95.0941 42,94.5C 55.3482,93.9925 66.3482,88.6591 75,78.5C 76.8009,75.5625 78.3009,72.5625 79.5,69.5 Z"/></g>
<g><path style="opacity:1" fill="#0a1111" d="M 124.5,122.5 C 136.322,123.495 148.322,123.828 160.5,123.5C 160.5,142.5 160.5,161.5 160.5,180.5C 159.147,196.862 153.147,211.195 142.5,223.5C 141.505,210.677 141.171,197.677 141.5,184.5C 144.5,184.5 147.5,184.5 150.5,184.5C 150.649,183.448 150.483,182.448 150,181.5C 143.961,175.957 137.795,170.624 131.5,165.5C 118.545,155.051 105.711,144.384 93,133.5C 74.8445,148.32 56.6779,163.153 38.5,178C 36.393,179.264 35.393,181.097 35.5,183.5C 38.2869,184.477 41.2869,184.81 44.5,184.5C 44.8288,197.677 44.4955,210.677 43.5,223.5C 33.1552,211.465 27.1552,197.465 25.5,181.5C 25.5,162.167 25.5,142.833 25.5,123.5C 37.0123,123.828 48.3456,123.495 59.5,122.5C 71.5945,122.302 82.7612,118.969 93,112.5C 102.503,118.945 113.003,122.278 124.5,122.5 Z"/></g>
<g><path style="opacity:1" fill="#a2813f" d="M 450.5,118.5 C 451.347,117.034 452.68,116.2 454.5,116C 445.833,115.333 437.167,115.333 428.5,116C 429.416,116.278 430.082,116.778 430.5,117.5C 429.5,117.5 428.5,117.5 427.5,117.5C 427.5,116.5 427.5,115.5 427.5,114.5C 436.833,114.5 446.167,114.5 455.5,114.5C 455.5,115.5 455.5,116.5 455.5,117.5C 453.784,117.629 452.117,117.962 450.5,118.5 Z"/></g>
<g><path style="opacity:1" fill="#0a1111" d="M 319.5,164.5 C 312.333,178.58 301.667,182.08 287.5,175C 282.732,170.285 279.399,164.785 277.5,158.5C 277.334,150.826 277.5,143.159 278,135.5C 283.801,117.917 294.968,113.417 311.5,122C 319.045,128.794 322.378,137.294 321.5,147.5C 321.596,153.281 320.929,158.948 319.5,164.5 Z"/></g>
<g><path style="opacity:1" fill="#0b1111" d="M 405.5,139.5 C 405.666,146.175 405.5,152.842 405,159.5C 400.528,175.318 390.361,181.152 374.5,177C 368.78,173.459 364.78,168.626 362.5,162.5C 360.506,154.303 360.006,145.97 361,137.5C 366.462,119.226 377.962,114.059 395.5,122C 401.039,126.579 404.373,132.412 405.5,139.5 Z"/></g>
<g><path style="opacity:1" fill="#c89f4e" d="M 330.5,166.5 C 327.56,164.437 325.394,165.437 324,169.5C 322.298,167.862 320.798,166.195 319.5,164.5C 320.929,158.948 321.596,153.281 321.5,147.5C 322.378,137.294 319.045,128.794 311.5,122C 294.968,113.417 283.801,117.917 278,135.5C 277.5,143.159 277.334,150.826 277.5,158.5C 277.063,160.074 276.063,161.241 274.5,162C 272.481,162.45 270.648,163.283 269,164.5C 268.329,163.748 267.496,163.414 266.5,163.5C 258.623,140.621 265.623,124.121 287.5,114C 307.193,109.269 322.359,115.436 333,132.5C 335.435,140.321 336.102,148.321 335,156.5C 334.092,160.193 332.592,163.527 330.5,166.5 Z"/></g>
<g><path style="opacity:1" fill="#cea755" d="M 171.5,180.5 C 170.507,171.682 170.173,162.682 170.5,153.5C 170.5,140.5 170.5,127.5 170.5,114.5C 169.127,114.343 167.793,114.51 166.5,115C 167.833,115.667 167.833,116.333 166.5,117C 167.167,117.333 167.833,117.667 168.5,118C 167.02,120.668 165.52,120.835 164,118.5C 162.548,119.907 162.715,121.407 164.5,123C 162.526,137.924 161.859,153.091 162.5,168.5C 162.923,174.606 162.59,178.606 161.5,180.5C 161.5,161.167 161.5,141.833 161.5,122.5C 149.167,122.5 136.833,122.5 124.5,122.5C 113.003,122.278 102.503,118.945 93,112.5C 82.7612,118.969 71.5945,122.302 59.5,122.5C 47.8333,122.5 36.1667,122.5 24.5,122.5C 24.5,142.167 24.5,161.833 24.5,181.5C 23.7618,178.9 23.0951,175.567 22.5,171.5C 22.3508,173.39 22.3508,175.39 22.5,177.5C 20.0087,178.541 20.0087,179.374 22.5,180C 20.7174,181.067 20.2174,182.567 21,184.5C 21.3333,184.167 21.6667,183.833 22,183.5C 22.6667,184.5 22.6667,185.5 22,186.5C 20.3005,185.594 18.4672,185.261 16.5,185.5C 16.7373,186.791 16.404,187.791 15.5,188.5C 14.7485,185.253 14.2485,181.919 14,178.5C 13.5,156.836 13.3334,135.169 13.5,113.5C 32.5868,114.135 51.5868,113.302 70.5,111C 78.6394,108.69 85.9727,104.857 92.5,99.5C 99.5027,105.502 107.503,109.669 116.5,112C 135.138,113.354 153.804,113.854 172.5,113.5C 172.831,136.006 172.497,158.34 171.5,180.5 Z"/></g>
<g><path style="opacity:1" fill="#bc9140" d="M 555.5,181.5 C 538.799,182.152 522.466,181.485 506.5,179.5C 510.523,178.975 512.69,176.641 513,172.5C 513.667,155.167 513.667,137.833 513,120.5C 510.659,118.479 508.159,116.812 505.5,115.5C 514.81,114.502 524.143,114.168 533.5,114.5C 533.5,115.5 533.5,116.5 533.5,117.5C 529.818,116.725 527.318,118.059 526,121.5C 525.333,139.167 525.333,156.833 526,174.5C 526.833,175.333 527.667,176.167 528.5,177C 534.902,177.818 541.235,177.484 547.5,176C 549.305,175.028 550.972,173.861 552.5,172.5C 554.025,169.437 556.025,166.77 558.5,164.5C 558.833,165.167 559.167,165.833 559.5,166.5C 558.446,171.598 557.113,176.598 555.5,181.5 Z"/></g>
<g><path style="opacity:1" fill="#413921" d="M 124.5,122.5 C 136.833,122.5 149.167,122.5 161.5,122.5C 161.5,141.833 161.5,161.167 161.5,180.5C 161.167,180.5 160.833,180.5 160.5,180.5C 160.5,161.5 160.5,142.5 160.5,123.5C 148.322,123.828 136.322,123.495 124.5,122.5 Z"/></g>
<g><path style="opacity:1" fill="#c19644" d="M 495.5,179.5 C 489.25,181.459 482.584,182.126 475.5,181.5C 468.223,170.616 460.223,160.283 451.5,150.5C 450.522,150.977 449.689,151.643 449,152.5C 448.5,159.826 448.334,167.159 448.5,174.5C 447.046,173.48 446.713,172.313 447.5,171C 444.833,170.333 444.833,169.667 447.5,169C 446.552,168.517 445.552,168.351 444.5,168.5C 444.649,169.552 444.483,170.552 444,171.5C 442.34,171.676 440.674,171.009 439,169.5C 438.692,170.308 438.192,170.975 437.5,171.5C 436.833,155.005 436.167,138.672 435.5,122.5C 434.856,119.856 433.189,118.189 430.5,117.5C 430.082,116.778 429.416,116.278 428.5,116C 437.167,115.333 445.833,115.333 454.5,116C 452.68,116.2 451.347,117.034 450.5,118.5C 449.732,119.263 449.232,120.263 449,121.5C 448.168,129.521 448.335,137.521 449.5,145.5C 456.849,138.317 464.349,131.317 472,124.5C 474.797,119.939 473.631,117.606 468.5,117.5C 468.5,116.5 468.5,115.5 468.5,114.5C 476.5,114.5 484.5,114.5 492.5,114.5C 492.5,115.5 492.5,116.5 492.5,117.5C 490.801,117.34 489.134,117.506 487.5,118C 486.122,119.713 484.455,121.047 482.5,122C 475.728,128.688 469.062,135.354 462.5,142C 471.055,154.561 480.388,166.561 490.5,178C 492.025,179.009 493.692,179.509 495.5,179.5 Z"/></g>
<g><path style="opacity:1" fill="#b68a3c" d="M 599.5,179.5 C 590.56,181.472 581.227,182.139 571.5,181.5C 573.855,179.899 576.355,178.232 579,176.5C 579.667,168.167 579.667,159.833 579,151.5C 573.252,141.003 567.252,130.67 561,120.5C 558.874,118.623 556.374,117.623 553.5,117.5C 553.5,116.5 553.5,115.5 553.5,114.5C 562.192,114.169 570.859,114.502 579.5,115.5C 578.086,116.624 576.586,117.624 575,118.5C 574.333,119.833 574.333,121.167 575,122.5C 579.667,130.5 584.333,138.5 589,146.5C 593.601,138.964 597.934,131.297 602,123.5C 603.509,118.507 601.675,116.507 596.5,117.5C 596.5,116.5 596.5,115.5 596.5,114.5C 603.5,114.5 610.5,114.5 617.5,114.5C 617.5,115.5 617.5,116.5 617.5,117.5C 613.853,117.622 611.019,119.288 609,122.5C 603.667,131.833 598.333,141.167 593,150.5C 592.333,158.5 592.333,166.5 593,174.5C 593.582,178.251 595.749,179.918 599.5,179.5 Z"/></g>
<g><path style="opacity:1" fill="#cba04d" d="M 170.5,153.5 C 169.691,154.469 168.691,155.302 167.5,156C 169.487,158.47 169.987,161.303 169,164.5C 167.243,164.133 165.743,164.966 164.5,167C 164.802,168.655 166.136,169.988 168.5,171C 165.28,173.203 163.28,172.37 162.5,168.5C 161.859,153.091 162.526,137.924 164.5,123C 162.715,121.407 162.548,119.907 164,118.5C 165.52,120.835 167.02,120.668 168.5,118C 167.833,117.667 167.167,117.333 166.5,117C 167.833,116.333 167.833,115.667 166.5,115C 167.793,114.51 169.127,114.343 170.5,114.5C 170.5,127.5 170.5,140.5 170.5,153.5 Z"/></g>
<g><path style="opacity:1" fill="#c59c4a" d="M 417.5,136.5 C 416.842,137.398 416.176,138.398 415.5,139.5C 413.53,138.557 412.03,139.224 411,141.5C 410.5,141 410,140.5 409.5,140C 410.711,138.887 410.711,137.72 409.5,136.5C 408.998,135.479 408.332,135.312 407.5,136C 407.362,140.966 407.695,145.966 408.5,151C 407.736,153.069 407.236,155.236 407,157.5C 406.828,151.319 406.328,145.319 405.5,139.5C 404.373,132.412 401.039,126.579 395.5,122C 377.962,114.059 366.462,119.226 361,137.5C 360.006,145.97 360.506,154.303 362.5,162.5C 362.249,164.17 361.582,165.67 360.5,167C 362.037,168.11 362.703,169.61 362.5,171.5C 363.833,171.5 365.167,171.5 366.5,171.5C 366.719,172.675 366.386,173.675 365.5,174.5C 364.28,173.289 363.113,173.289 362,174.5C 360.563,171.63 359.063,171.296 357.5,173.5C 353.461,170.446 350.627,166.446 349,161.5C 343.216,140.249 350.049,124.749 369.5,115C 386.463,109.699 400.963,113.532 413,126.5C 415.324,129.48 416.824,132.813 417.5,136.5 Z"/></g>
<g><path style="opacity:1" fill="#a28040" d="M 249.5,123.5 C 249.5,143.167 249.5,162.833 249.5,182.5C 246.615,182.806 243.948,182.473 241.5,181.5C 243.833,181.5 246.167,181.5 248.5,181.5C 248.17,161.993 248.503,142.659 249.5,123.5 Z"/></g>
<g><path style="opacity:1" fill="#0a1111" d="M 127.5,174.5 C 129.604,176.099 131.604,177.932 133.5,180C 131.686,197.6 130.853,215.433 131,233.5C 118.936,242.783 106.436,251.45 93.5,259.5C 79.9837,251.812 67.1503,243.145 55,233.5C 54.8316,215.995 54.3316,198.662 53.5,181.5C 51.668,180.86 51.3347,179.86 52.5,178.5C 65.8333,167.5 79.1667,156.5 92.5,145.5C 104.013,155.413 115.68,165.08 127.5,174.5 Z"/></g>
<g><path style="opacity:1" fill="#c89f4d" d="M 249.5,123.5 C 248.503,142.659 248.17,161.993 248.5,181.5C 246.167,181.5 243.833,181.5 241.5,181.5C 227.124,165.126 213.124,148.459 199.5,131.5C 199.44,130.957 199.107,130.624 198.5,130.5C 197.174,145.328 197.174,159.995 198.5,174.5C 199.941,177.942 202.275,180.275 205.5,181.5C 197.757,182.13 190.424,181.463 183.5,179.5C 186.233,179.052 188.399,177.719 190,175.5C 190.667,157.5 190.667,139.5 190,121.5C 188.688,118.762 186.522,117.428 183.5,117.5C 183.5,116.5 183.5,115.5 183.5,114.5C 189.509,114.334 195.509,114.501 201.5,115C 214.667,130.833 227.833,146.667 241,162.5C 241.667,148.5 241.667,134.5 241,120.5C 239.491,118.081 237.325,117.081 234.5,117.5C 234.5,116.5 234.5,115.5 234.5,114.5C 241.863,114.169 249.197,114.503 256.5,115.5C 255.009,117.012 253.176,118.012 251,118.5C 249.991,120.025 249.491,121.692 249.5,123.5 Z"/></g>
<g><path style="opacity:1" fill="#816937" d="M 199.5,131.5 C 198.504,145.657 198.171,159.99 198.5,174.5C 197.174,159.995 197.174,145.328 198.5,130.5C 199.107,130.624 199.44,130.957 199.5,131.5 Z"/></g>
<g><path style="opacity:1" fill="#bd9242" d="M 417.5,136.5 C 423.261,158.356 415.594,173.522 394.5,182C 383.735,184.795 373.401,183.795 363.5,179C 361.004,177.669 359.004,175.836 357.5,173.5C 359.063,171.296 360.563,171.63 362,174.5C 363.113,173.289 364.28,173.289 365.5,174.5C 366.386,173.675 366.719,172.675 366.5,171.5C 365.167,171.5 363.833,171.5 362.5,171.5C 362.703,169.61 362.037,168.11 360.5,167C 361.582,165.67 362.249,164.17 362.5,162.5C 364.78,168.626 368.78,173.459 374.5,177C 390.361,181.152 400.528,175.318 405,159.5C 405.5,152.842 405.666,146.175 405.5,139.5C 406.328,145.319 406.828,151.319 407,157.5C 407.236,155.236 407.736,153.069 408.5,151C 407.695,145.966 407.362,140.966 407.5,136C 408.332,135.312 408.998,135.479 409.5,136.5C 410.711,137.72 410.711,138.887 409.5,140C 410,140.5 410.5,141 411,141.5C 412.03,139.224 413.53,138.557 415.5,139.5C 416.176,138.398 416.842,137.398 417.5,136.5 Z"/></g>
<g><path style="opacity:1" fill="#453d24" d="M 59.5,122.5 C 48.3456,123.495 37.0123,123.828 25.5,123.5C 25.5,142.833 25.5,162.167 25.5,181.5C 25.1667,181.5 24.8333,181.5 24.5,181.5C 24.5,161.833 24.5,142.167 24.5,122.5C 36.1667,122.5 47.8333,122.5 59.5,122.5 Z"/></g>
<g><path style="opacity:1" fill="#cea551" d="M 131.5,165.5 C 131.631,166.239 131.464,166.906 131,167.5C 130.346,166.304 129.846,166.304 129.5,167.5C 130.729,168.281 132.062,168.781 133.5,169C 132.939,170.566 133.606,171.899 135.5,173C 134.407,174.365 133.074,174.699 131.5,174C 132.167,173.667 132.833,173.333 133.5,173C 132.333,172.5 131.5,171.667 131,170.5C 130.51,171.793 130.343,173.127 130.5,174.5C 129.5,174.5 128.5,174.5 127.5,174.5C 115.68,165.08 104.013,155.413 92.5,145.5C 79.1667,156.5 65.8333,167.5 52.5,178.5C 51.3347,179.86 51.668,180.86 53.5,181.5C 53.6666,195.171 53.4999,208.837 53,222.5C 53.0519,218.344 52.2185,214.51 50.5,211C 51.1667,210.667 51.8333,210.333 52.5,210C 51.1667,209.333 49.8333,209.333 48.5,210C 49.6537,210.914 49.487,211.747 48,212.5C 48.1653,209.163 47.9987,205.663 47.5,202C 47.6004,199.698 48.267,197.698 49.5,196C 47.4078,195.047 47.0745,193.714 48.5,192C 47.7511,190.266 47.2511,188.433 47,186.5C 46.8307,198.674 46.3307,210.674 45.5,222.5C 45.5,209.5 45.5,196.5 45.5,183.5C 42.1667,183.5 38.8333,183.5 35.5,183.5C 35.393,181.097 36.393,179.264 38.5,178C 56.6779,163.153 74.8445,148.32 93,133.5C 105.711,144.384 118.545,155.051 131.5,165.5 Z"/></g>
<g><path style="opacity:1" fill="#b78d3f" d="M 435.5,122.5 C 436.167,138.672 436.833,155.005 437.5,171.5C 438.192,170.975 438.692,170.308 439,169.5C 440.674,171.009 442.34,171.676 444,171.5C 444.483,170.552 444.649,169.552 444.5,168.5C 445.552,168.351 446.552,168.517 447.5,169C 444.833,169.667 444.833,170.333 447.5,171C 446.713,172.313 447.046,173.48 448.5,174.5C 449.398,178.053 451.732,179.719 455.5,179.5C 451.386,180.826 446.886,181.493 442,181.5C 437.114,181.493 432.614,180.826 428.5,179.5C 432.107,179.621 434.273,177.955 435,174.5C 435.5,157.17 435.667,139.837 435.5,122.5 Z"/></g>
<g><path style="opacity:1" fill="#c09645" d="M 277.5,158.5 C 279.399,164.785 282.732,170.285 287.5,175C 301.667,182.08 312.333,178.58 319.5,164.5C 320.798,166.195 322.298,167.862 324,169.5C 325.394,165.437 327.56,164.437 330.5,166.5C 321.393,179.714 308.726,185.38 292.5,183.5C 290.485,182.076 288.152,181.41 285.5,181.5C 276.563,178.229 270.23,172.229 266.5,163.5C 267.496,163.414 268.329,163.748 269,164.5C 270.648,163.283 272.481,162.45 274.5,162C 276.063,161.241 277.063,160.074 277.5,158.5 Z"/></g>
<g><path style="opacity:1" fill="#5c4d28" d="M 183.5,179.5 C 190.424,181.463 197.757,182.13 205.5,181.5C 198.018,182.492 190.352,182.825 182.5,182.5C 182.263,181.209 182.596,180.209 183.5,179.5 Z"/></g>
<g><path style="opacity:1" fill="#5a4a25" d="M 428.5,179.5 C 432.614,180.826 437.114,181.493 442,181.5C 446.886,181.493 451.386,180.826 455.5,179.5C 456.404,180.209 456.737,181.209 456.5,182.5C 446.833,182.5 437.167,182.5 427.5,182.5C 427.263,181.209 427.596,180.209 428.5,179.5 Z"/></g>
<g><path style="opacity:1" fill="#584925" d="M 495.5,179.5 C 496.404,180.209 496.737,181.209 496.5,182.5C 489.313,182.825 482.313,182.491 475.5,181.5C 482.584,182.126 489.25,181.459 495.5,179.5 Z"/></g>
<g><path style="opacity:1" fill="#5a4925" d="M 506.5,179.5 C 522.466,181.485 538.799,182.152 555.5,181.5C 539.008,182.497 522.342,182.83 505.5,182.5C 505.263,181.209 505.596,180.209 506.5,179.5 Z"/></g>
<g><path style="opacity:1" fill="#574723" d="M 599.5,179.5 C 600.404,180.209 600.737,181.209 600.5,182.5C 590.652,182.827 580.986,182.494 571.5,181.5C 581.227,182.139 590.56,181.472 599.5,179.5 Z"/></g>
<g><path style="opacity:1" fill="#66532a" d="M 285.5,181.5 C 288.152,181.41 290.485,182.076 292.5,183.5C 289.848,183.59 287.515,182.924 285.5,181.5 Z"/></g>
<g><path style="opacity:1" fill="#c29745" d="M 170.5,153.5 C 170.173,162.682 170.507,171.682 171.5,180.5C 167.568,209.918 153.235,232.752 128.5,249C 117.073,257.131 105.239,264.631 93,271.5C 71.2237,260.107 51.557,245.774 34,228.5C 24.3229,216.811 18.1562,203.478 15.5,188.5C 16.404,187.791 16.7373,186.791 16.5,185.5C 18.4672,185.261 20.3005,185.594 22,186.5C 22.6667,185.5 22.6667,184.5 22,183.5C 21.6667,183.833 21.3333,184.167 21,184.5C 20.2174,182.567 20.7174,181.067 22.5,180C 20.0087,179.374 20.0087,178.541 22.5,177.5C 22.3508,175.39 22.3508,173.39 22.5,171.5C 23.0951,175.567 23.7618,178.9 24.5,181.5C 24.8333,181.5 25.1667,181.5 25.5,181.5C 27.1552,197.465 33.1552,211.465 43.5,223.5C 44.6226,224.757 45.2893,224.424 45.5,222.5C 46.3307,210.674 46.8307,198.674 47,186.5C 47.2511,188.433 47.7511,190.266 48.5,192C 47.0745,193.714 47.4078,195.047 49.5,196C 48.267,197.698 47.6004,199.698 47.5,202C 47.9987,205.663 48.1653,209.163 48,212.5C 49.487,211.747 49.6537,210.914 48.5,210C 49.8333,209.333 51.1667,209.333 52.5,210C 51.8333,210.333 51.1667,210.667 50.5,211C 52.2185,214.51 53.0519,218.344 53,222.5C 53.4999,208.837 53.6666,195.171 53.5,181.5C 54.3316,198.662 54.8316,215.995 55,233.5C 67.1503,243.145 79.9837,251.812 93.5,259.5C 106.436,251.45 118.936,242.783 131,233.5C 130.853,215.433 131.686,197.6 133.5,180C 131.604,177.932 129.604,176.099 127.5,174.5C 128.5,174.5 129.5,174.5 130.5,174.5C 130.343,173.127 130.51,171.793 131,170.5C 131.5,171.667 132.333,172.5 133.5,173C 132.833,173.333 132.167,173.667 131.5,174C 133.074,174.699 134.407,174.365 135.5,173C 133.606,171.899 132.939,170.566 133.5,169C 132.062,168.781 130.729,168.281 129.5,167.5C 129.846,166.304 130.346,166.304 131,167.5C 131.464,166.906 131.631,166.239 131.5,165.5C 137.795,170.624 143.961,175.957 150,181.5C 150.483,182.448 150.649,183.448 150.5,184.5C 147.5,184.5 144.5,184.5 141.5,184.5C 140.339,197.994 140.173,211.66 141,225.5C 141.717,224.956 142.217,224.289 142.5,223.5C 153.147,211.195 159.147,196.862 160.5,180.5C 160.833,180.5 161.167,180.5 161.5,180.5C 162.59,178.606 162.923,174.606 162.5,168.5C 163.28,172.37 165.28,173.203 168.5,171C 166.136,169.988 164.802,168.655 164.5,167C 165.743,164.966 167.243,164.133 169,164.5C 169.987,161.303 169.487,158.47 167.5,156C 168.691,155.302 169.691,154.469 170.5,153.5 Z"/></g>
<g><path style="opacity:1" fill="#68572f" d="M 35.5,183.5 C 38.8333,183.5 42.1667,183.5 45.5,183.5C 45.5,196.5 45.5,209.5 45.5,222.5C 45.2893,224.424 44.6226,224.757 43.5,223.5C 44.4955,210.677 44.8288,197.677 44.5,184.5C 41.2869,184.81 38.2869,184.477 35.5,183.5 Z"/></g>
<g><path style="opacity:1" fill="#302c1b" d="M 141.5,184.5 C 141.171,197.677 141.505,210.677 142.5,223.5C 142.217,224.289 141.717,224.956 141,225.5C 140.173,211.66 140.339,197.994 141.5,184.5 Z"/></g>
<g><path style="opacity:1" fill="#5d4d2a" d="M 95.5,195.5 C 95.5,198.833 95.5,202.167 95.5,205.5C 98.8333,205.5 102.167,205.5 105.5,205.5C 105.5,202.167 105.5,198.833 105.5,195.5C 106.482,198.962 106.815,202.629 106.5,206.5C 102.5,206.5 98.5,206.5 94.5,206.5C 94.185,202.629 94.5184,198.962 95.5,195.5 Z"/></g>
<g><path style="opacity:1" fill="#826937" d="M 80.5,195.5 C 80.5,198.833 80.5,202.167 80.5,205.5C 83.8333,205.5 87.1667,205.5 90.5,205.5C 87.0381,206.482 83.3714,206.815 79.5,206.5C 79.185,202.629 79.5184,198.962 80.5,195.5 Z"/></g>
<g><path style="opacity:1" fill="#ca9f4d" d="M 80.5,195.5 C 83.8333,195.5 87.1667,195.5 90.5,195.5C 90.5,198.833 90.5,202.167 90.5,205.5C 90.5,202.167 90.5,198.833 90.5,195.5C 87.1667,195.5 83.8333,195.5 80.5,195.5 Z"/></g>
<g><path style="opacity:1" fill="#ca9f4c" d="M 95.5,195.5 C 98.8333,195.5 102.167,195.5 105.5,195.5C 105.5,198.833 105.5,202.167 105.5,205.5C 102.167,205.5 98.8333,205.5 95.5,205.5C 95.5,202.167 95.5,198.833 95.5,195.5 Z"/></g>
<g><path style="opacity:1" fill="#c69d4d" d="M 79.5,178.5 C 83.1667,178.5 86.8333,178.5 90.5,178.5C 90.5,182.167 90.5,185.833 90.5,189.5C 86.8333,189.5 83.1667,189.5 79.5,189.5C 79.5,185.833 79.5,182.167 79.5,178.5 Z"/></g>
<g><path style="opacity:1" fill="#cba04e" d="M 95.5,178.5 C 98.8333,178.5 102.167,178.5 105.5,178.5C 105.5,182.167 105.5,185.833 105.5,189.5C 102.167,189.5 98.8333,189.5 95.5,189.5C 95.5,185.833 95.5,182.167 95.5,178.5 Z"/></g>
</svg>
